<?xml version="1.0" standalone="no"?>
<!DOCTYPE svg PUBLIC "-//W3C//DTD SVG 20010904//EN"
 "http://www.w3.org/TR/2001/REC-SVG-20010904/DTD/svg10.dtd">
<svg version="1.0" xmlns="http://www.w3.org/2000/svg"
 width="1076.000000pt" height="623.000000pt" viewBox="0 0 1076.000000 623.000000"
 preserveAspectRatio="xMidYMid meet">

<g transform="translate(0.000000,623.000000) scale(0.100000,-0.100000)"
fill="#000000" stroke="none">
<path d="M1866 4564 c-212 -51 -397 -257 -468 -519 -28 -107 -31 -342 -4 -455
9 -41 23 -114 31 -162 15 -99 38 -155 95 -236 l40 -58 0 -210 c0 -239 9 -292
65 -379 68 -108 185 -165 335 -165 178 0 296 73 368 227 27 57 27 62 29 273 1
118 2 220 3 225 0 6 29 49 65 97 69 91 89 135 100 215 4 26 18 93 32 148 45
188 41 367 -14 535 -109 336 -396 532 -677 464z m219 -59 c158 -41 302 -179
378 -361 46 -110 61 -190 61 -329 1 -112 -3 -149 -31 -265 -17 -74 -34 -152
-37 -172 -14 -81 -222 -335 -309 -377 -38 -18 -62 -21 -181 -21 -115 0 -143 3
-174 19 -70 36 -252 248 -282 330 -10 26 -23 82 -29 124 -6 43 -19 110 -28
150 -25 101 -24 317 1 412 93 354 359 560 631 490z m-394 -1510 c77 -71 105
-78 294 -73 162 4 179 9 258 71 26 20 42 26 49 19 6 -6 9 -71 6 -173 -3 -156
-4 -167 -31 -221 -30 -62 -83 -115 -149 -150 -38 -20 -57 -23 -158 -23 -101 0
-120 3 -158 23 -66 35 -119 88 -149 150 -27 55 -28 63 -31 245 -2 103 0 187 3
187 4 0 34 -25 66 -55z"/>
<path d="M3645 3531 c-49 -22 -91 -69 -105 -119 -8 -25 -10 -164 -8 -422 l3
-385 27 -41 c16 -26 44 -50 71 -63 40 -20 59 -21 278 -21 228 0 236 1 279 24
34 18 52 37 73 76 24 47 27 62 27 156 l0 104 -120 0 -120 0 0 -60 0 -60 -140
0 -140 0 0 295 0 295 140 0 139 0 3 -62 3 -63 118 -2 117 -2 0 105 c0 147 -27
205 -115 245 -35 16 -67 19 -265 19 -197 0 -230 -3 -265 -19z"/>
<path d="M4510 3015 l0 -535 325 0 325 0 0 120 0 120 -200 0 -200 0 0 415 0
415 -125 0 -125 0 0 -535z"/>
<path d="M5380 3015 l0 -535 120 0 120 0 0 535 0 535 -120 0 -120 0 0 -535z"/>
<path d="M5850 3015 l0 -535 120 0 120 0 0 282 0 282 135 -279 c74 -153 135
-280 135 -282 0 -1 56 -3 125 -3 l125 0 0 535 0 535 -125 0 -124 0 0 -271 c0
-150 -2 -273 -4 -275 -2 -2 -62 119 -133 269 l-130 272 -122 3 -122 3 0 -536z"/>
<path d="M6830 3015 l0 -535 125 0 125 0 0 535 -1 535 -124 0 -124 0 -1 -535z"/>
<path d="M7415 3531 c-48 -22 -79 -54 -100 -103 -13 -32 -15 -97 -15 -416 l0
-378 25 -50 c15 -29 40 -59 62 -74 38 -25 41 -25 281 -28 230 -3 246 -2 287
18 25 12 55 38 71 62 27 39 29 49 33 160 l3 118 -121 0 -121 0 0 -60 0 -60
-140 0 -140 0 0 295 0 295 140 0 140 0 0 -66 0 -65 118 3 117 3 3 95 c4 108
-7 155 -45 201 -53 63 -82 69 -333 69 -198 0 -230 -3 -265 -19z"/>
<path d="M8419 3541 c-44 -14 -88 -53 -109 -96 -19 -39 -20 -62 -20 -434 0
-365 1 -394 19 -429 23 -45 56 -77 94 -91 17 -7 121 -11 263 -11 261 0 278 3
331 63 50 57 55 102 51 509 -3 362 -3 363 -27 401 -13 21 -42 50 -64 65 l-40
27 -236 2 c-130 1 -248 -2 -262 -6z m381 -526 l0 -295 -135 0 -135 0 0 295 0
295 135 0 135 0 0 -295z"/>
<path d="M1419 2747 c-88 -59 -169 -216 -169 -328 0 -30 -4 -49 -12 -49 -26 0
-77 -52 -93 -95 -44 -113 30 -225 149 -225 87 0 148 46 166 126 19 83 -34 173
-119 198 l-46 14 3 56 c3 77 37 162 87 215 52 57 89 111 77 111 -5 0 -24 -10
-43 -23z m-80 -438 c63 -22 80 -107 32 -161 -24 -27 -36 -33 -71 -33 -82 0
-129 96 -79 159 34 43 66 53 118 35z"/>
<path d="M1272 2248 c-35 -35 15 -99 53 -68 30 25 12 80 -25 80 -9 0 -21 -5
-28 -12z"/>
<path d="M2511 2748 c7 -13 28 -40 47 -62 60 -68 86 -137 86 -241 l1 -89 -37
-7 c-58 -9 -68 -23 -68 -93 l-1 -61 -173 -202 c-95 -111 -176 -209 -180 -218
-11 -30 -6 -79 13 -121 23 -51 91 -100 161 -117 28 -6 50 -15 50 -19 0 -11 76
-48 99 -48 23 0 36 20 45 72 10 53 -13 72 -78 65 -28 -2 -52 -9 -54 -15 -4
-13 -86 15 -129 43 -24 16 -53 70 -53 99 0 8 77 105 171 215 l171 201 58 0 59
0 163 -190 c90 -105 167 -202 173 -216 16 -43 -19 -93 -88 -128 -52 -26 -62
-28 -91 -18 -81 30 -133 5 -121 -57 10 -51 23 -71 46 -71 23 0 99 37 99 48 0
4 21 13 46 20 104 28 174 107 174 196 0 43 -5 50 -180 254 l-180 210 0 61 c0
50 -4 62 -22 75 -18 13 -22 26 -24 89 -4 119 -52 225 -141 312 -41 40 -59 45
-42 13z m169 -498 l0 -40 -40 0 c-39 0 -40 1 -40 33 0 42 5 47 47 47 32 0 33
-1 33 -40z m-165 -707 c-9 -37 -11 -38 -40 -25 -15 7 -25 20 -25 32 0 16 7 20
36 20 34 0 36 -1 29 -27z m325 7 c0 -27 -47 -50 -61 -29 -20 31 -11 49 26 49
28 0 35 -4 35 -20z"/>
</g>
</svg>
